<?xml version="1.0" encoding="UTF-8" standalone="no"?>
<!-- Created with Inkscape (http://www.inkscape.org/) -->

<svg
   xmlns:dc="http://purl.org/dc/elements/1.1/"
   xmlns:cc="http://creativecommons.org/ns#"
   xmlns:rdf="http://www.w3.org/1999/02/22-rdf-syntax-ns#"
   xmlns:svg="http://www.w3.org/2000/svg"
   xmlns="http://www.w3.org/2000/svg"
   xmlns:sodipodi="http://sodipodi.sourceforge.net/DTD/sodipodi-0.dtd"
   xmlns:inkscape="http://www.inkscape.org/namespaces/inkscape"
   id="svg2"
   version="1.1"
   inkscape:version="0.91 r"
   xml:space="preserve"
   width="270"
   height="270"
   viewBox="0 0 280 280"
   sodipodi:docname="particle.svg"><metadata
     id="metadata8"><rdf:RDF><cc:Work
         rdf:about=""><dc:format>image/svg+xml</dc:format><dc:type
           rdf:resource="http://purl.org/dc/dcmitype/StillImage" /><dc:title /></cc:Work></rdf:RDF></metadata><defs
     id="defs6" /><sodipodi:namedview
     pagecolor="#ffffff"
     bordercolor="#666666"
     borderopacity="1"
     objecttolerance="10"
     gridtolerance="10"
     guidetolerance="10"
     inkscape:pageopacity="0"
     inkscape:pageshadow="2"
     inkscape:window-width="1918"
     inkscape:window-height="923"
     id="namedview4"
     showgrid="false"
     inkscape:zoom="2"
     inkscape:cx="218.28381"
     inkscape:cy="140.07581"
     inkscape:window-x="0"
     inkscape:window-y="25"
     inkscape:window-maximized="0"
     inkscape:current-layer="g10" /><g
     id="g10"
     inkscape:groupmode="layer"
     inkscape:label="spark-mark"
     transform="matrix(1.25,0,0,-1.25,0,250)"><circle
       style="fill:#808080;fill-opacity:1;fill-rule:nonzero;stroke:#000000;stroke-width:1.65877128;stroke-opacity:0.55688626"
       id="path3343"
       cx="108.00001"
       cy="-92.000008"
       transform="scale(1,-1)"
       r="107.17062" /><path
       style="fill:#808080;fill-opacity:1;fill-rule:nonzero;stroke:#000000;stroke-width:0.18726344;stroke-opacity:0.55688626"
       d=""
       id="path4151"
       inkscape:connector-curvature="0"
       transform="matrix(0.8,0,0,-0.8,0,200)" /><path
       style="fill:#808080;fill-opacity:1;fill-rule:nonzero;stroke:#000000;stroke-width:0.18726344;stroke-opacity:0.55688626"
       d=""
       id="path4155"
       inkscape:connector-curvature="0"
       transform="matrix(0.8,0,0,-0.8,0,200)" /><circle
       style="fill:#ffffff;fill-opacity:1;fill-rule:nonzero;stroke:#000000;stroke-width:0.79744846;stroke-opacity:0.55688626"
       id="path3345"
       cx="108"
       cy="-92"
       transform="scale(1,-1)"
       r="99.601273" /><path
       style="fill:#808080;fill-opacity:1;fill-rule:nonzero;stroke:#000000;stroke-width:0.84745759;stroke-opacity:0.55688626"
       d="m 47.259322,88.973568 c -12.002119,2.573896 -21.822034,4.912896 -21.822034,5.197776 0,0.284872 4.862288,1.548706 10.805085,2.808516 5.942797,1.25981 15.857273,3.37309 22.032171,4.69617 l 11.227086,2.40561 3.052361,-5.02473 3.052362,-5.024726 -3.262499,-4.869224 -3.262498,-4.869224 -21.822034,4.679832 z"
       id="path4143"
       inkscape:connector-curvature="0" /><path
       style="fill:#808080;fill-opacity:1;fill-rule:nonzero;stroke:#000000;stroke-width:0.84745759;stroke-opacity:0.55688626"
       d="m 103.28127,130.10032 c -4.62581,3.15058 -4.84561,3.45947 -4.27336,6.00546 0.33181,1.47623 2.61343,11.83659 5.07027,23.02303 2.45684,11.18644 4.49704,19.95763 4.53376,19.49153 0.0367,-0.4661 2.1639,-10.57204 4.72704,-22.45763 2.56315,-11.88559 4.65624,-21.99152 4.65132,-22.45763 -0.005,-0.4661 -2.21924,-2.21516 -4.92068,-3.88681 l -4.91172,-3.03936 -4.87663,3.32141 z"
       id="path4145"
       inkscape:connector-curvature="0" /><path
       style="fill:#808080;fill-opacity:1;fill-rule:nonzero;stroke:#000000;stroke-width:0.84745759;stroke-opacity:0.55688626"
       d="m 144.18929,89.221296 -3.17227,5.09168 3.20504,4.981264 c 1.76279,2.7397 3.58641,4.84265 4.05252,4.67323 0.4661,-0.16942 10.46785,-2.35144 22.22612,-4.84893 11.75826,-2.49748 21.10148,-4.79174 20.76271,-5.098348 -0.33878,-0.306608 -9.95917,-2.526248 -21.37867,-4.932528 -11.41948,-2.40628 -21.15881,-4.506224 -21.64295,-4.666552 -0.48413,-0.16032 -2.30776,1.99976 -4.0525,4.800184 z"
       id="path4147"
       inkscape:connector-curvature="0" /><path
       style="fill:#808080;fill-opacity:1;fill-rule:nonzero;stroke:#000000;stroke-width:0.84745759;stroke-opacity:0.55688626"
       d="m 103.64035,31.058952 c -2.53039,11.966896 -4.730854,22.330032 -4.88991,23.029184 -0.18152,0.797824 1.58475,2.423336 4.74323,4.365224 l 5.03244,3.09404 4.52508,-3.00756 c 2.48879,-1.65416 4.67363,-3.13148 4.8552,-3.28292 0.26358,-0.219848 -9.12793,-45.269976 -9.54952,-45.808144 -0.0637,-0.0813 -2.18613,9.643272 -4.71652,21.610176 z"
       id="path4149"
       inkscape:connector-curvature="0" /><g
       id="g28"
       transform="translate(172.001,157.7538)"
       style="fill:#808080"><path
         d="M 0,0 -41.139,-63.63 0,-127.268 l -63.638,41.14 -63.637,-41.14 41.138,63.638 L -127.275,0 -63.638,-41.13 0,0 Z"
         style="fill:#808080;fill-opacity:1;fill-rule:nonzero;stroke:none"
         id="path30"
         inkscape:connector-curvature="0" /></g></g></svg>
